<svg width="179" height="127" viewBox="0 0 179 127" fill="none" xmlns="http://www.w3.org/2000/svg">
<path d="M38.4851 85V64H46.0151C47.7751 64 49.2851 64.28 50.5451 64.84C51.8051 65.4 52.7751 66.21 53.4551 67.27C54.1351 68.31 54.4751 69.58 54.4751 71.08C54.4751 72.54 54.1351 73.8 53.4551 74.86C52.7751 75.92 51.8051 76.73 50.5451 77.29C49.2851 77.85 47.7751 78.13 46.0151 78.13H39.3251L40.0151 77.41V85H38.4851ZM40.0151 77.5L39.3251 76.75H46.0151C48.2751 76.75 49.9851 76.26 51.1451 75.28C52.3251 74.28 52.9151 72.88 52.9151 71.08C52.9151 69.26 52.3251 67.86 51.1451 66.88C49.9851 65.88 48.2751 65.38 46.0151 65.38H39.3251L40.0151 64.63V77.5ZM89.7213 85V64.9L90.1713 65.38H82.1613V64H98.8113V65.38H90.8013L91.2513 64.9V85H89.7213ZM144.477 85L135.987 74.44L137.277 73.69L146.277 85H144.477ZM129.897 85V64H131.427V85H129.897ZM130.917 75.04V73.66H137.307V75.04H130.917ZM137.367 74.65L135.957 74.35L144.027 64H145.737L137.367 74.65ZM0.551 120L9.889 99.7H11.368L20.706 120H19.111L10.295 100.628H10.933L2.146 120H0.551ZM3.973 114.287L4.466 113.04H16.617L17.11 114.287H3.973ZM24.4006 120V104.862H30.7806C32.4432 104.862 33.7579 105.191 34.7246 105.848C35.6912 106.505 36.1746 107.462 36.1746 108.719C36.1746 109.956 35.7009 110.894 34.7536 111.532C33.8256 112.17 32.6172 112.489 31.1286 112.489L31.5346 112.054C33.3132 112.054 34.6182 112.383 35.4496 113.04C36.2809 113.697 36.6966 114.664 36.6966 115.94C36.6966 117.235 36.2229 118.241 35.2756 118.956C34.3476 119.652 32.9072 120 30.9546 120H24.4006ZM25.8216 118.811H30.9256C32.3369 118.811 33.4099 118.579 34.1446 118.115C34.8792 117.651 35.2466 116.907 35.2466 115.882C35.2466 114.838 34.9179 114.084 34.2606 113.62C33.6226 113.137 32.5882 112.895 31.1576 112.895H25.8216V118.811ZM25.8216 111.764H30.6936C31.9696 111.764 32.9556 111.522 33.6516 111.039C34.3669 110.556 34.7246 109.84 34.7246 108.893C34.7246 107.946 34.3669 107.24 33.6516 106.776C32.9556 106.293 31.9696 106.051 30.6936 106.051H25.8216V111.764ZM44.6009 120V105.732L45.0069 106.167H38.6849V104.862H51.9669V106.167H45.6449L46.0509 105.732V120H44.6009ZM60.3954 120.116C58.9454 120.116 57.6501 119.787 56.5094 119.13C55.3881 118.473 54.4891 117.564 53.8124 116.404C53.1551 115.244 52.8264 113.92 52.8264 112.431C52.8264 110.923 53.1551 109.599 53.8124 108.458C54.4891 107.298 55.3881 106.389 56.5094 105.732C57.6501 105.075 58.9454 104.746 60.3954 104.746C61.8454 104.746 63.1408 105.075 64.2814 105.732C65.4221 106.389 66.3211 107.298 66.9784 108.458C67.6358 109.599 67.9644 110.923 67.9644 112.431C67.9644 113.92 67.6358 115.244 66.9784 116.404C66.3211 117.564 65.4221 118.473 64.2814 119.13C63.1408 119.787 61.8454 120.116 60.3954 120.116ZM60.3954 118.811C61.5554 118.811 62.5994 118.55 63.5274 118.028C64.4554 117.487 65.1804 116.733 65.7024 115.766C66.2244 114.799 66.4854 113.688 66.4854 112.431C66.4854 111.155 66.2244 110.043 65.7024 109.096C65.1804 108.129 64.4554 107.385 63.5274 106.863C62.5994 106.322 61.5554 106.051 60.3954 106.051C59.2354 106.051 58.1914 106.322 57.2634 106.863C56.3548 107.385 55.6298 108.129 55.0884 109.096C54.5664 110.043 54.3054 111.155 54.3054 112.431C54.3054 113.688 54.5664 114.799 55.0884 115.766C55.6298 116.733 56.3548 117.487 57.2634 118.028C58.1914 118.55 59.2354 118.811 60.3954 118.811ZM72.6867 120V104.862H74.1077L81.2707 116.839H80.6327L87.8247 104.862H89.1587V120H87.8247V106.602L88.1147 106.718L81.2417 118.057H80.5747L73.6727 106.631L74.0207 106.573V120H72.6867ZM104.882 120V116.549L104.824 116.027V110.343C104.824 108.932 104.437 107.859 103.664 107.124C102.91 106.389 101.798 106.022 100.329 106.022C99.2849 106.022 98.3086 106.206 97.3999 106.573C96.5106 106.921 95.7469 107.375 95.1089 107.936L94.3839 106.892C95.1379 106.215 96.0466 105.693 97.1099 105.326C98.1732 104.939 99.2849 104.746 100.445 104.746C102.32 104.746 103.761 105.22 104.766 106.167C105.771 107.114 106.274 108.526 106.274 110.401V120H104.882ZM99.4299 120.116C98.3086 120.116 97.3322 119.942 96.5009 119.594C95.6889 119.227 95.0606 118.714 94.6159 118.057C94.1906 117.4 93.9779 116.646 93.9779 115.795C93.9779 115.022 94.1519 114.326 94.4999 113.707C94.8672 113.069 95.4666 112.557 96.2979 112.17C97.1292 111.764 98.2409 111.561 99.6329 111.561H105.201V112.692H99.6619C98.0959 112.692 96.9939 112.982 96.3559 113.562C95.7372 114.142 95.4279 114.867 95.4279 115.737C95.4279 116.704 95.7952 117.477 96.5299 118.057C97.2646 118.637 98.2989 118.927 99.6329 118.927C100.909 118.927 101.982 118.637 102.852 118.057C103.741 117.477 104.399 116.636 104.824 115.534L105.23 116.52C104.824 117.622 104.128 118.502 103.142 119.159C102.175 119.797 100.938 120.116 99.4299 120.116ZM114.92 120V105.732L115.326 106.167H109.004V104.862H122.286V106.167H115.964L116.37 105.732V120H114.92ZM125.391 120V104.862H126.841V117.767L137.629 104.862H138.905V120H137.455V107.095L126.667 120H125.391ZM156.323 120L149.827 112.431L151.045 111.735L158.063 120H156.323ZM145.158 120V104.862H146.608V120H145.158ZM146.144 112.982V111.735H150.9V112.982H146.144ZM151.132 112.576L149.798 112.344L156.004 104.862H157.599L151.132 112.576ZM170.812 120V116.549L170.754 116.027V110.343C170.754 108.932 170.367 107.859 169.594 107.124C168.84 106.389 167.728 106.022 166.259 106.022C165.215 106.022 164.238 106.206 163.33 106.573C162.44 106.921 161.677 107.375 161.039 107.936L160.314 106.892C161.068 106.215 161.976 105.693 163.04 105.326C164.103 104.939 165.215 104.746 166.375 104.746C168.25 104.746 169.69 105.22 170.696 106.167C171.701 107.114 172.204 108.526 172.204 110.401V120H170.812ZM165.36 120.116C164.238 120.116 163.262 119.942 162.431 119.594C161.619 119.227 160.99 118.714 160.546 118.057C160.12 117.4 159.908 116.646 159.908 115.795C159.908 115.022 160.082 114.326 160.43 113.707C160.797 113.069 161.396 112.557 162.228 112.17C163.059 111.764 164.171 111.561 165.563 111.561H171.131V112.692H165.592C164.026 112.692 162.924 112.982 162.286 113.562C161.667 114.142 161.358 114.867 161.358 115.737C161.358 116.704 161.725 117.477 162.46 118.057C163.194 118.637 164.229 118.927 165.563 118.927C166.839 118.927 167.912 118.637 168.782 118.057C169.671 117.477 170.328 116.636 170.754 115.534L171.16 116.52C170.754 117.622 170.058 118.502 169.072 119.159C168.105 119.797 166.868 120.116 165.36 120.116Z" fill="black"/>
<path d="M10.8925 31.256C9.18587 31.256 7.55387 31 5.99653 30.488C4.4392 29.9547 3.21253 29.272 2.31653 28.44L3.50053 25.944C4.35387 26.6907 5.44187 27.3093 6.76453 27.8C8.0872 28.2907 9.4632 28.536 10.8925 28.536C12.1939 28.536 13.2499 28.3867 14.0605 28.088C14.8712 27.7893 15.4685 27.384 15.8525 26.872C16.2365 26.3387 16.4285 25.7413 16.4285 25.08C16.4285 24.312 16.1725 23.6933 15.6605 23.224C15.1699 22.7547 14.5192 22.3813 13.7085 22.104C12.9192 21.8053 12.0445 21.5493 11.0845 21.336C10.1245 21.1227 9.15387 20.8773 8.17253 20.6C7.21253 20.3013 6.3272 19.928 5.51653 19.48C4.7272 19.032 4.0872 18.4347 3.59653 17.688C3.10587 16.92 2.86053 15.9387 2.86053 14.744C2.86053 13.592 3.1592 12.536 3.75653 11.576C4.3752 10.5947 5.31387 9.816 6.57253 9.24C7.85253 8.64267 9.47387 8.344 11.4365 8.344C12.7379 8.344 14.0285 8.51467 15.3085 8.856C16.5885 9.19733 17.6979 9.688 18.6365 10.328L17.5805 12.888C16.6205 12.248 15.6072 11.7893 14.5405 11.512C13.4739 11.2133 12.4392 11.064 11.4365 11.064C10.1779 11.064 9.1432 11.224 8.33253 11.544C7.52187 11.864 6.92453 12.2907 6.54053 12.824C6.17787 13.3573 5.99653 13.9547 5.99653 14.616C5.99653 15.4053 6.24187 16.0347 6.73253 16.504C7.24453 16.9733 7.8952 17.3467 8.68453 17.624C9.4952 17.9013 10.3805 18.1573 11.3405 18.392C12.3005 18.6053 13.2605 18.8507 14.2205 19.128C15.2019 19.4053 16.0872 19.768 16.8765 20.216C17.6872 20.664 18.3379 21.2613 18.8285 22.008C19.3192 22.7547 19.5645 23.7147 19.5645 24.888C19.5645 26.0187 19.2552 27.0747 18.6365 28.056C18.0179 29.016 17.0579 29.7947 15.7565 30.392C14.4765 30.968 12.8552 31.256 10.8925 31.256Z" fill="#7DE1E1"/>
<path d="M26.2875 26.904L26.3515 22.968L36.1115 14.04H39.8235L32.3355 21.4L30.6715 22.808L26.2875 26.904ZM23.7915 31V7.256H26.8635V31H23.7915ZM36.7515 31L30.0955 22.744L32.0795 20.28L40.5275 31H36.7515ZM43.34 37.4C42.5294 37.4 41.74 37.2613 40.972 36.984C40.204 36.728 39.5427 36.344 38.988 35.832L40.3 33.528C40.7267 33.9333 41.196 34.2427 41.708 34.456C42.22 34.6693 42.764 34.776 43.34 34.776C44.0867 34.776 44.7054 34.584 45.196 34.2C45.6867 33.816 46.1454 33.1333 46.572 32.152L47.628 29.816L47.948 29.432L54.604 14.04H57.612L49.388 32.696C48.8974 33.8907 48.3427 34.8293 47.724 35.512C47.1267 36.1947 46.4654 36.6747 45.74 36.952C45.0147 37.2507 44.2147 37.4 43.34 37.4ZM47.372 31.544L39.628 14.04H42.828L49.42 29.144L47.372 31.544ZM96.3398 31.192C94.6118 31.192 93.0651 30.8187 91.6998 30.072C90.3558 29.3253 89.2998 28.3013 88.5318 27C87.7638 25.6987 87.3798 24.2053 87.3798 22.52C87.3798 20.8347 87.7638 19.3413 88.5318 18.04C89.2998 16.7387 90.3558 15.7253 91.6998 15C93.0651 14.2533 94.6118 13.88 96.3398 13.88C97.8758 13.88 99.2411 14.1893 100.436 14.808C101.652 15.4053 102.59 16.3013 103.252 17.496L100.916 19C100.361 18.168 99.6784 17.56 98.8678 17.176C98.0784 16.7707 97.2251 16.568 96.3078 16.568C95.1984 16.568 94.2064 16.8133 93.3318 17.304C92.4571 17.7947 91.7638 18.488 91.2518 19.384C90.7398 20.2587 90.4838 21.304 90.4838 22.52C90.4838 23.736 90.7398 24.792 91.2518 25.688C91.7638 26.584 92.4571 27.2773 93.3318 27.768C94.2064 28.2587 95.1984 28.504 96.3078 28.504C97.2251 28.504 98.0784 28.312 98.8678 27.928C99.6784 27.5227 100.361 26.904 100.916 26.072L103.252 27.544C102.59 28.7173 101.652 29.624 100.436 30.264C99.2411 30.8827 97.8758 31.192 96.3398 31.192ZM117.757 31V27.416L117.597 26.744V20.632C117.597 19.3307 117.213 18.328 116.445 17.624C115.698 16.8987 114.568 16.536 113.053 16.536C112.05 16.536 111.069 16.7067 110.109 17.048C109.149 17.368 108.338 17.8053 107.677 18.36L106.397 16.056C107.272 15.352 108.317 14.8187 109.533 14.456C110.77 14.072 112.061 13.88 113.405 13.88C115.73 13.88 117.522 14.4453 118.781 15.576C120.04 16.7067 120.669 18.4347 120.669 20.76V31H117.757ZM112.189 31.192C110.93 31.192 109.821 30.9787 108.861 30.552C107.922 30.1253 107.197 29.5387 106.685 28.792C106.173 28.024 105.917 27.16 105.917 26.2C105.917 25.2827 106.13 24.4507 106.557 23.704C107.005 22.9573 107.72 22.36 108.701 21.912C109.704 21.464 111.048 21.24 112.733 21.24H118.109V23.448H112.861C111.325 23.448 110.29 23.704 109.757 24.216C109.224 24.728 108.957 25.3467 108.957 26.072C108.957 26.904 109.288 27.576 109.949 28.088C110.61 28.5787 111.528 28.824 112.701 28.824C113.853 28.824 114.856 28.568 115.709 28.056C116.584 27.544 117.213 26.7973 117.597 25.816L118.205 27.928C117.8 28.9307 117.085 29.7307 116.061 30.328C115.037 30.904 113.746 31.192 112.189 31.192ZM133.362 31.192C131.719 31.192 130.247 30.8293 128.946 30.104C127.666 29.3787 126.653 28.3653 125.906 27.064C125.159 25.7627 124.786 24.248 124.786 22.52C124.786 20.792 125.159 19.288 125.906 18.008C126.653 16.7067 127.666 15.6933 128.946 14.968C130.247 14.2427 131.719 13.88 133.362 13.88C134.791 13.88 136.082 14.2 137.234 14.84C138.386 15.48 139.303 16.44 139.986 17.72C140.69 19 141.042 20.6 141.042 22.52C141.042 24.44 140.701 26.04 140.018 27.32C139.357 28.6 138.45 29.5707 137.298 30.232C136.146 30.872 134.834 31.192 133.362 31.192ZM133.618 28.504C134.685 28.504 135.645 28.2587 136.498 27.768C137.373 27.2773 138.055 26.584 138.546 25.688C139.058 24.7707 139.314 23.7147 139.314 22.52C139.314 21.304 139.058 20.2587 138.546 19.384C138.055 18.488 137.373 17.7947 136.498 17.304C135.645 16.8133 134.685 16.568 133.618 16.568C132.53 16.568 131.559 16.8133 130.706 17.304C129.853 17.7947 129.17 18.488 128.658 19.384C128.146 20.2587 127.89 21.304 127.89 22.52C127.89 23.7147 128.146 24.7707 128.658 25.688C129.17 26.584 129.853 27.2773 130.706 27.768C131.559 28.2587 132.53 28.504 133.618 28.504ZM139.41 31V26.424L139.602 22.488L139.282 18.552V7.256H142.354V31H139.41ZM158.695 31V27.416L158.535 26.744V20.632C158.535 19.3307 158.151 18.328 157.383 17.624C156.636 16.8987 155.505 16.536 153.991 16.536C152.988 16.536 152.007 16.7067 151.047 17.048C150.087 17.368 149.276 17.8053 148.615 18.36L147.335 16.056C148.209 15.352 149.255 14.8187 150.471 14.456C151.708 14.072 152.999 13.88 154.343 13.88C156.668 13.88 158.46 14.4453 159.719 15.576C160.977 16.7067 161.607 18.4347 161.607 20.76V31H158.695ZM153.127 31.192C151.868 31.192 150.759 30.9787 149.799 30.552C148.86 30.1253 148.135 29.5387 147.623 28.792C147.111 28.024 146.855 27.16 146.855 26.2C146.855 25.2827 147.068 24.4507 147.495 23.704C147.943 22.9573 148.657 22.36 149.639 21.912C150.641 21.464 151.985 21.24 153.671 21.24H159.047V23.448H153.799C152.263 23.448 151.228 23.704 150.695 24.216C150.161 24.728 149.895 25.3467 149.895 26.072C149.895 26.904 150.225 27.576 150.887 28.088C151.548 28.5787 152.465 28.824 153.639 28.824C154.791 28.824 155.793 28.568 156.647 28.056C157.521 27.544 158.151 26.7973 158.535 25.816L159.143 27.928C158.737 28.9307 158.023 29.7307 156.999 30.328C155.975 30.904 154.684 31.192 153.127 31.192Z" fill="black"/>
<path d="M76.0488 31.256C74.3421 31.256 72.7101 31 71.1528 30.488C69.5954 29.9547 68.3688 29.272 67.4728 28.44L68.6568 25.944C69.5101 26.6907 70.5981 27.3093 71.9208 27.8C73.2434 28.2907 74.6194 28.536 76.0488 28.536C77.3501 28.536 78.4061 28.3867 79.2168 28.088C80.0274 27.7893 80.6248 27.384 81.0088 26.872C81.3928 26.3387 81.5848 25.7413 81.5848 25.08C81.5848 24.312 81.3288 23.6933 80.8168 23.224C80.3261 22.7547 79.6754 22.3813 78.8648 22.104C78.0754 21.8053 77.2008 21.5493 76.2408 21.336C75.2808 21.1227 74.3101 20.8773 73.3288 20.6C72.3688 20.3013 71.4834 19.928 70.6728 19.48C69.8834 19.032 69.2434 18.4347 68.7528 17.688C68.2621 16.92 68.0168 15.9387 68.0168 14.744C68.0168 13.592 68.3154 12.536 68.9128 11.576C69.5314 10.5947 70.4701 9.816 71.7288 9.24C73.0088 8.64267 74.6301 8.344 76.5928 8.344C77.8941 8.344 79.1848 8.51467 80.4648 8.856C81.7448 9.19733 82.8541 9.688 83.7928 10.328L82.7368 12.888C81.7768 12.248 80.7634 11.7893 79.6968 11.512C78.6301 11.2133 77.5954 11.064 76.5928 11.064C75.3341 11.064 74.2994 11.224 73.4888 11.544C72.6781 11.864 72.0808 12.2907 71.6968 12.824C71.3341 13.3573 71.1528 13.9547 71.1528 14.616C71.1528 15.4053 71.3981 16.0347 71.8888 16.504C72.4008 16.9733 73.0514 17.3467 73.8408 17.624C74.6514 17.9013 75.5368 18.1573 76.4968 18.392C77.4568 18.6053 78.4168 18.8507 79.3768 19.128C80.3581 19.4053 81.2434 19.768 82.0328 20.216C82.8434 20.664 83.4941 21.2613 83.9848 22.008C84.4754 22.7547 84.7208 23.7147 84.7208 24.888C84.7208 26.0187 84.4114 27.0747 83.7928 28.056C83.1741 29.016 82.2141 29.7947 80.9128 30.392C79.6328 30.968 78.0114 31.256 76.0488 31.256Z" fill="#E5585F"/>
<line x1="-4.37114e-08" y1="45.5" x2="179" y2="45.5" stroke="#424242"/>
</svg>
